PathFileType	4	(X/Y/Z)	/Users/itak/Documents/Research/Walk-IL/dataset/trc/00372_00011.trc
DataRate	CameraRate	NumFrames	NumMarkers	Units	OrigDataRate	OrigDataStartFrame	OrigNumFrames
100.000000	100.000000	4	56	mm	100.000000	145	581
Frame#	Time	RPSI			LPSI			L3			STRN			T10			C7			CLAV			RBAK			LBAK			LSHO			LUPA			LAEL			LAOL			LWPS			LFRA			LIFD			LHPS			LHTS			RSHO			RUPA			RAEL			RAOL			RWPS			RFRA			RIFD			RHTS			RHPS			RBHD			LFHD			RFHD			LBHD			LHIP			RHIP			RASI			LASI			LKNE			LTHI			LANK			LTIP			LTOE			LMT1			LMT5			LHEE			RKNE			RTHI			RANK			RTIP			RTOE			RMT1			RMT5			RHEE			LWTS			RWTS			*53			*54			*55			
		X1	Y1	Z1	X2	Y2	Z2	X3	Y3	Z3	X4	Y4	Z4	X5	Y5	Z5	X6	Y6	Z6	X7	Y7	Z7	X8	Y8	Z8	X9	Y9	Z9	X10	Y10	Z10	X11	Y11	Z11	X12	Y12	Z12	X13	Y13	Z13	X14	Y14	Z14	X15	Y15	Z15	X16	Y16	Z16	X17	Y17	Z17	X18	Y18	Z18	X19	Y19	Z19	X20	Y20	Z20	X21	Y21	Z21	X22	Y22	Z22	X23	Y23	Z23	X24	Y24	Z24	X25	Y25	Z25	X26	Y26	Z26	X27	Y27	Z27	X28	Y28	Z28	X29	Y29	Z29	X30	Y30	Z30	X31	Y31	Z31	X32	Y32	Z32	X33	Y33	Z33	X34	Y34	Z34	X35	Y35	Z35	X36	Y36	Z36	X37	Y37	Z37	X38	Y38	Z38	X39	Y39	Z39	X40	Y40	Z40	X41	Y41	Z41	X42	Y42	Z42	X43	Y43	Z43	X44	Y44	Z44	X45	Y45	Z45	X46	Y46	Z46	X47	Y47	Z47	X48	Y48	Z48	X49	Y49	Z49	X50	Y50	Z50	X51	Y51	Z51	X52	Y52	Z52	X53	Y53	Z53	X54	Y54	Z54	X55	Y55	Z55	X56	Y56	Z56	

146	1.45	-1249.865112304688	989.9185791015625	-60.67391204833984	-1247.629638671875	988.1521606445312	-189.7849426269531	-1243.68017578125	1040.197021484375	-122.5883178710938	-1015.582580566406	1221.481811523438	-130.0307922363281	-1252.955688476562	1159.280639648438	-138.6924591064453	-1207.996459960938	1406.771240234375	-163.2282867431641	-1053.588500976562	1348.572631835938	-141.3336791992188	-1260.657958984375	1270.800170898438	-93.55794525146484	-1210.940673828125	1365.04736328125	-263.8831176757812	-1120.09130859375	1379.942138671875	-312.6450805664062	-1134.37158203125	1257.900268554688	-377.7014465332031	-1121.839965820312	1053.865600585938	-383.9041442871094	-1190.700439453125	1042.861328125	-335.9231567382812	-1061.0224609375	800.7533569335938	-377.3704528808594	-1105.299560546875	948.7347412109375	-385.8893127441406	-1024.818603515625	654.109375	-297.3536987304688	-1064.827270507812	730.7666015625	-366.8218383789062	-1015.707092285156	736.1680908203125	-325.2992858886719	-1164.760620117188	1401.808715820312	4.940073013305664	-1180.926513671875	1340.191650390625	69.55374908447266	-1183.580688476562	1076.346069335938	122.2446136474609	-1221.03662109375	1066.407958984375	35.96515274047852	-1108.265869140625	832.359619140625	147.4579467773438	-1158.932861328125	1008.273132324219	133.9910583496094	-1064.39013671875	673.2943725585938	85.97046661376953	-1049.229858398438	742.999267578125	94.25177764892578	-1095.138427734375	747.8218994140625	146.6516418457031	-1178.757568359375	1613.12060546875	-79.32315826416016	-994.1502685546875	1622.532348632812	-177.7175140380859	-1015.826293945312	1622.047607421875	-78.54127502441406	-1174.671020507812	1609.518798828125	-223.9508056640625	-1164.078735351562	924.6715698242188	-291.9673767089844	-1177.276977539062	930.056640625	50.25708389282227	-1068.771240234375	951.799560546875	11.07944202423096	-1042.359741210938	943.4110107421875	-227.6303100585938	-1129.008056640625	459.6893310546875	-266.8583679199219	-1124.54541015625	599.563720703125	-278.4766540527344	-1254.277587890625	48.55872344970703	-250.6278533935547	-1189.871337890625	247.7850341796875	-269.1708679199219	-1046.762329101562	48.8096809387207	-197.0821990966797	-1112.582153320312	36.5189094543457	-152.5042114257812	-1129.073974609375	44.68291854858398	-266.0433654785156	-1284.456909179688	43.87325286865234	-181.2957763671875	-1174.278686523438	463.54736328125	56.14250183105469	-1106.511474609375	708.653564453125	47.26626586914062	-1247.726196289062	52.89730834960938	47.98738479614258	-1172.65576171875	345.7598571777344	48.64817428588867	-1055.747314453125	49.54692840576172	-6.533710956573486	-1111.87548828125	42.69087600708008	-46.80659103393555	-1146.212524414062	41.66435623168945	65.90593719482422	-1299.1689453125	52.88067626953125	0.7040600180625916	-1029.305297851562	816.2315063476562	-317.8979797363281	-1077.443481445312	844.5339965820312	77.77393341064453	nan	nan	nan	nan	nan	nan	nan	nan	nan	
147	1.46	-1248.514892578125	989.7965698242188	-61.84568786621094	-1246.762573242188	987.9242553710938	-190.9825286865234	-1242.468383789062	1040.026733398438	-123.7367782592773	-1014.335388183594	1221.237548828125	-131.40576171875	-1251.77392578125	1159.155151367188	-139.6528778076172	-1206.706298828125	1406.653442382812	-164.12939453125	-1052.287841796875	1348.376831054688	-142.5039978027344	-1259.203735351562	1270.621459960938	-94.41522979736328	-1209.783081054688	1364.93310546875	-264.7881164550781	-1119.006103515625	1379.901245117188	-313.7024230957031	-1133.4052734375	1257.870239257812	-378.801513671875	-1120.91796875	1053.7255859375	-384.902099609375	-1189.773193359375	1042.8154296875	-336.927734375	-1059.677734375	800.6332397460938	-377.5640563964844	-1104.214965820312	948.60546875	-386.6216735839844	-1023.177062988281	654.3313598632812	-297.2519226074219	-1063.386596679688	730.6891479492188	-366.5440063476562	-1014.068420410156	736.3570556640625	-325.1910095214844	-1163.223510742188	1401.645141601562	3.915776014328003	-1179.38916015625	1340.163452148438	68.62785339355469	-1182.529663085938	1076.443969726562	121.7021942138672	-1219.88134765625	1066.4091796875	35.42082977294922	-1107.19921875	832.497314453125	147.2155456542969	-1157.961547851562	1008.34912109375	133.6258392333984	-1063.072875976562	673.4092407226562	85.90225219726562	-1047.9853515625	743.1515502929688	94.11048889160156	-1093.961181640625	747.966064453125	146.5451812744141	-1176.378051757812	1613.468627929688	-80.04293060302734	-991.832275390625	1621.3955078125	-178.6206970214844	-1013.369445800781	1620.998901367188	-79.47877502441406	-1172.52734375	1609.993286132812	-224.6925048828125	-1163.404174804688	924.2972412109375	-293.3123168945312	-1175.605590820312	929.9596557617188	48.91501617431641	-1067.223266601562	951.5763549804688	9.302804946899414	-1041.646484375	943.14111328125	-229.4196929931641	-1127.27392578125	459.154541015625	-267.5224914550781	-1123.615844726562	599.20703125	-279.5441284179688	-1254.332763671875	48.52080535888672	-250.6080932617188	-1189.003784179688	247.4615783691406	-269.4013671875	-1046.7763671875	49.11515045166016	-197.2080230712891	-1112.641845703125	36.5625	-152.5609436035156	-1129.12060546875	44.73886871337891	-266.0682678222656	-1284.51513671875	43.80917358398438	-181.2723083496094	-1172.247924804688	463.3935852050781	55.26397323608398	-1105.582763671875	709.3092041015625	47.1153564453125	-1247.772583007812	52.90071105957031	47.94149780273438	-1170.9501953125	345.361572265625	47.80766296386719	-1055.822509765625	49.62469100952148	-6.574164390563965	-1111.949462890625	42.66229629516602	-46.86090469360352	-1146.25634765625	41.67535400390625	65.88471221923828	-1299.253662109375	52.82085418701172	0.6954572200775146	-1027.537231445312	816.5737915039062	-318.3489685058594	-1076.289184570312	844.6314086914062	77.51274871826172	nan	nan	nan	nan	nan	nan	nan	nan	nan	
148	1.47	-1247.106567382812	989.6316528320312	-63.09069442749023	-1245.82666015625	987.666259765625	-192.2554626464844	-1241.216186523438	1039.81591796875	-124.9672393798828	-1013.060485839844	1220.977294921875	-132.8455657958984	-1250.58251953125	1158.996948242188	-140.7117462158203	-1205.38037109375	1406.5029296875	-165.1002044677734	-1050.960083007812	1348.161987304688	-143.7366027832031	-1257.742065429688	1270.409301757812	-95.36470031738281	-1208.5966796875	1364.797485351562	-265.7698669433594	-1117.884643554688	1379.8515625	-314.82421875	-1132.391723632812	1257.827270507812	-379.9656982421875	-1119.89892578125	1053.5693359375	-385.9630126953125	-1188.750366210938	1042.73974609375	-338.0000915527344	-1058.144409179688	800.5188598632812	-377.804443359375	-1103.0087890625	948.471435546875	-387.4209289550781	-1021.309204101562	654.5642700195312	-297.1941833496094	-1061.728759765625	730.6231689453125	-366.3084411621094	-1012.260070800781	736.516357421875	-325.1278076171875	-1161.69384765625	1401.439086914062	2.818842649459839	-1177.861083984375	1340.091064453125	67.62434387207031	-1181.478271484375	1076.508544921875	121.1139755249023	-1218.728515625	1066.3623046875	34.81971740722656	-1106.109252929688	832.602783203125	146.9518737792969	-1156.998168945312	1008.385437011719	133.2359161376953	-1061.716918945312	673.5115356445312	85.83563995361328	-1046.6884765625	743.2947387695312	93.97647094726562	-1092.742797851562	748.0778198242188	146.4085845947266	-1173.911376953125	1613.775024414062	-80.79307556152344	-989.4151611328125	1620.181274414062	-179.4948883056641	-1010.830505371094	1619.847045898438	-80.40653991699219	-1170.25	1610.469116210938	-225.4571685791016	-1162.638793945312	923.89501953125	-294.7172546386719	-1173.891479492188	929.8404541015625	47.50465774536133	-1065.633056640625	951.354248046875	7.450728893280029	-1040.851928710938	942.8857421875	-231.2842712402344	-1125.712646484375	458.6431274414062	-268.2699584960938	-1122.792236328125	598.8737182617188	-280.6752014160156	-1254.398193359375	48.46366882324219	-250.6104888916016	-1188.242309570312	247.1394958496094	-269.6976318359375	-1046.804443359375	49.4185905456543	-197.3345489501953	-1112.711059570312	36.63041687011719	-152.6217041015625	-1129.175170898438	44.78782653808594	-266.1095581054688	-1284.592529296875	43.74831771850586	-181.27099609375	-1169.77294921875	463.1871337890625	54.22970581054688	-1104.617553710938	710.0751953125	47.0759162902832	-1247.814697265625	52.90280532836914	47.87849807739258	-1168.883056640625	344.8506164550781	46.84634017944336	-1055.891235351562	49.67955780029297	-6.627203464508057	-1112.016723632812	42.60028839111328	-46.93772888183594	-1146.294799804688	41.68009185791016	65.8548583984375	-1299.320068359375	52.74875640869141	0.6792138814926147	-1025.552978515625	816.9536743164062	-318.8682250976562	-1075.103759765625	844.6995239257812	77.22968292236328	nan	nan	nan	nan	nan	nan	nan	nan	nan	
149	1.48	-1245.646118164062	989.4166870117188	-64.39900207519531	-1244.82373046875	987.3829956054688	-193.5950927734375	-1239.927734375	1039.564697265625	-126.2721405029297	-1011.755920410156	1220.696411132812	-134.3452453613281	-1249.378295898438	1158.804809570312	-141.8708343505859	-1204.015625	1406.314575195312	-166.1470031738281	-1049.602294921875	1347.921508789062	-145.0289459228516	-1256.276733398438	1270.1630859375	-96.411376953125	-1207.36865234375	1364.638549804688	-266.8314819335938	-1116.717651367188	1379.787231445312	-316.0111999511719	-1131.313720703125	1257.767456054688	-381.1937866210938	-1118.7578125	1053.39501953125	-387.0805969238281	-1187.613159179688	1042.630126953125	-339.1407165527344	-1056.402465820312	800.4090576171875	-378.0914001464844	-1101.65478515625	948.3306884765625	-388.2833557128906	-1019.208923339844	654.80224609375	-297.1705932617188	-1059.837768554688	730.5672607421875	-366.1252136230469	-1010.2939453125	736.6279907226562	-325.1033630371094	-1160.1708984375	1401.187866210938	1.646003603935242	-1176.341796875	1339.97216796875	66.54042816162109	-1180.42626953125	1076.537841796875	120.4739379882812	-1217.57861328125	1066.2646484375	34.15803909301758	-1104.993774414062	832.6759643554688	146.6643371582031	-1156.038696289062	1008.380554199219	132.8150329589844	-1060.322265625	673.6040649414062	85.76198577880859	-1045.345336914062	743.42529296875	93.84943389892578	-1091.492431640625	748.156494140625	146.2383728027344	-1171.362182617188	1614.022583007812	-81.57448577880859	-986.904052734375	1618.887329101562	-180.3369445800781	-1008.217224121094	1618.584106445312	-81.31790161132812	-1167.837158203125	1610.934692382812	-226.2441864013672	-1161.7890625	923.4761352539062	-296.1794128417969	-1172.14501953125	929.6821899414062	46.03363037109375	-1064.013916015625	951.1170654296875	5.530321598052979	-1039.9765625	942.648193359375	-233.2159271240234	-1124.302124023438	458.1580200195312	-269.1012268066406	-1122.038818359375	598.5620727539062	-281.8550720214844	-1254.474853515625	48.38739013671875	-250.6380767822266	-1187.567138671875	246.8142852783203	-270.05615234375	-1046.84765625	49.70989990234375	-197.4580383300781	-1112.787475585938	36.72060775756836	-152.6846923828125	-1129.236938476562	44.82705688476562	-266.1670532226562	-1284.686401367188	43.69051742553711	-181.2929229736328	-1166.785522460938	462.9080505371094	53.0037727355957	-1103.605346679688	710.9325561523438	47.14767074584961	-1247.8466796875	52.90641403198242	47.79731369018555	-1166.41357421875	344.2106628417969	45.75920486450195	-1055.94580078125	49.70492553710938	-6.69166374206543	-1112.069458007812	42.50362014770508	-47.03641128540039	-1146.320190429688	41.6790885925293	65.8145751953125	-1299.364135742188	52.67215728759766	0.6534299254417419	-1023.351867675781	817.360595703125	-319.4460754394531	-1073.887817382812	844.7396240234375	76.92909240722656	nan	nan	nan	nan	nan	nan	nan	nan	nan	
